<svg xmlns="http://www.w3.org/2000/svg" width="980" height="1298" viewBox="0 0 980 1298">
<rect width="980" height="1298" fill="#070b13"/>
<text x="34" y="34" fill="#e5e7eb" font-family="Inter,Arial,sans-serif" font-size="22" font-weight="700">Atrial reservoir topology orientation review</text>
<text x="34" y="58" fill="#9ca3af" font-family="Inter,Arial,sans-serif" font-size="13">blood-volume axis fails opposed lobes; effective wall-stretch axis reveals the hidden orientation signal. Acceptance still requires blood/cavity volume coevolution.</text>
<line x1="34" y1="76" x2="76" y2="76" stroke="#cbd5e1" stroke-width="3"/>
<text x="84" y="80" fill="#cbd5e1" font-family="Inter,Arial,sans-serif" font-size="13">blood volume</text>
<line x1="184" y1="76" x2="226" y2="76" stroke="#f59e0b" stroke-width="3"/>
<text x="234" y="80" fill="#f59e0b" font-family="Inter,Arial,sans-serif" font-size="13">effective stretch (blood - capacity)</text>
<rect x="52" y="92" width="430" height="270" rx="9" fill="#111827" stroke="#253044"/>
<text x="70" y="120" fill="#e5e7eb" font-family="Inter,Arial,sans-serif" font-size="16" font-weight="700">normal-hr75</text>
<line x1="94" y1="320" x2="440" y2="320" stroke="#334155"/>
<line x1="94" y1="134" x2="94" y2="320" stroke="#334155"/>
<text x="94" y="349" fill="#9ca3af" font-family="Inter,Arial,sans-serif" font-size="11">LA volume axis</text>
<text x="62" y="129" fill="#9ca3af" font-family="Inter,Arial,sans-serif" font-size="11" transform="rotate(-90 62,129)">LAP</text>
<path d="M98.4,251.1 L97.1,254.6 L96.3,257.9 L96.2,261.0 L96.8,264.0 L98.1,266.9 L100.2,269.6 L103.0,272.2 L106.2,274.7 L109.8,277.0 L113.4,279.1 L117.1,281.2 L120.8,283.0 L124.5,284.6 L128.3,286.1 L132.1,287.5 L135.9,288.8 L139.8,290.0 L143.7,291.2 L147.6,292.3 L151.5,293.3 L155.4,294.3 L159.4,295.2 L163.4,296.0 L167.4,296.8 L171.4,297.6 L175.4,298.3 L179.4,299.0 L183.5,299.7 L187.5,300.3 L191.6,300.8 L195.7,301.4 L199.8,301.9 L203.9,302.3 L208.0,302.8 L212.1,303.2 L216.2,303.6 L220.3,304.0 L224.5,304.3 L228.6,304.6 L232.7,305.0 L236.9,305.3 L241.0,305.5 L245.2,305.8 L249.3,306.0 L253.5,306.3 L257.7,306.5 L261.8,306.7 L266.0,306.9 L270.2,309.4 L274.5,313.2 L278.9,316.7 L283.3,319.4 L287.8,320.0 L292.2,320.0 L296.7,319.0 L301.0,315.2 L305.2,311.5 L309.4,307.9 L313.4,304.4 L317.4,301.0 L321.3,297.6 L325.1,294.3 L328.8,291.1 L332.4,287.9 L336.0,284.8 L339.5,281.8 L342.9,278.8 L346.2,275.9 L349.5,273.1 L352.7,270.3 L355.8,267.6 L358.9,264.9 L361.9,262.3 L364.8,259.8 L367.7,257.3 L370.5,254.9 L373.3,252.5 L375.9,250.1 L378.6,247.8 L381.2,245.6 L383.7,243.4 L386.2,241.3 L388.6,239.2 L391.0,237.1 L393.3,235.1 L395.6,233.1 L397.8,231.2 L400.0,228.5 L402.0,225.2 L404.0,221.9 L406.0,218.7 L407.8,215.6 L409.6,212.6 L411.3,209.8 L412.9,207.1 L414.5,204.5 L416.0,202.0 L417.5,199.6 L418.9,197.4 L420.3,195.3 L421.6,193.3 L422.9,191.4 L424.1,189.6 L425.3,188.0 L426.5,186.5 L427.6,185.1 L428.7,183.8 L429.8,182.6 L430.8,181.5 L431.9,180.4 L432.9,179.4 L433.8,178.5 L434.8,177.6 L435.7,176.7 L436.7,175.9 L437.6,175.2 L438.4,174.0 L439.1,173.0 L439.6,172.2 L439.9,171.6 L440.0,171.2 L439.8,171.1 L439.4,171.3 L438.7,171.7 L437.7,172.4 L436.5,173.4 L435.0,174.6 L433.3,176.0 L431.3,177.7 L429.2,179.6 L426.8,181.7 L424.3,183.9 L421.6,186.3 L418.8,188.8 L415.9,191.4 L412.9,194.2 L409.8,197.0 L406.7,199.8 L403.6,202.7 L400.5,205.6 L397.4,208.4 L394.3,211.3 L391.3,214.1 L388.3,216.9 L385.4,219.6 L382.6,221.9 L379.8,223.6 L377.0,224.2 L374.3,223.6 L371.5,221.6 L368.5,218.2 L365.4,213.4 L362.0,207.5 L358.3,200.4 L354.2,192.6 L349.7,184.3 L344.7,175.8 L339.2,167.4 L333.1,159.6 L326.6,152.6 L319.5,146.8 L312.1,142.5 L304.2,139.9 L296.0,139.3 L287.5,139.4 L278.7,135.8 L269.5,134.3 L260.2,134.0 L250.7,134.7 L241.0,136.4 L231.3,139.0 L221.6,142.7 L212.0,147.3 L202.5,152.6 L193.2,158.7 L184.2,165.2 L175.4,172.1 L167.0,179.0 L159.0,185.9 L151.4,192.4 L144.2,198.7 L137.4,204.7 L131.1,210.3 L125.2,215.8 L119.8,220.9 L114.9,225.9 L110.4,230.6 L106.5,235.0 L103.0,239.3 L100.1,243.4" fill="none" stroke="#cbd5e1" stroke-width="3" opacity="0.86"/>
<path d="M95.9,251.1 L94.7,254.6 L94.0,257.9 L94.0,261.0 L94.7,264.0 L96.2,266.9 L98.4,269.6 L101.2,272.2 L104.6,274.7 L108.2,277.0 L111.9,279.1 L115.6,281.2 L119.4,283.0 L123.2,284.6 L127.0,286.1 L130.8,287.5 L134.6,288.8 L138.5,290.0 L142.4,291.2 L146.3,292.3 L150.3,293.3 L154.2,294.3 L158.2,295.2 L162.2,296.0 L166.2,296.8 L170.2,297.6 L174.3,298.3 L178.3,299.0 L182.4,299.7 L186.5,300.3 L190.5,300.8 L194.6,301.4 L198.7,301.9 L202.9,302.3 L207.0,302.8 L211.1,303.2 L215.2,303.6 L219.4,304.0 L223.5,304.3 L227.7,304.6 L231.8,305.0 L236.0,305.3 L240.1,305.5 L244.3,305.8 L248.5,306.0 L252.6,306.3 L256.8,306.5 L261.0,306.7 L265.0,306.9 L257.5,309.4 L243.4,313.2 L230.3,316.7 L218.3,319.4 L207.2,320.0 L197.0,320.0 L187.6,319.0 L179.0,315.2 L171.1,311.5 L163.8,307.9 L157.3,304.4 L151.5,301.0 L146.3,297.6 L141.7,294.3 L137.8,291.1 L134.6,287.9 L131.9,284.8 L129.9,281.8 L128.4,278.8 L127.5,275.9 L127.3,273.1 L127.8,270.3 L134.1,267.6 L140.2,264.9 L146.2,262.3 L152.2,259.8 L158.0,257.3 L163.7,254.9 L169.3,252.5 L174.9,250.1 L180.3,247.8 L185.6,245.6 L190.9,243.4 L196.0,241.3 L201.1,239.2 L206.1,237.1 L210.9,235.1 L215.8,233.1 L220.5,231.2 L225.1,228.5 L229.6,225.2 L234.0,221.9 L238.3,218.7 L242.5,215.6 L246.6,212.6 L250.5,209.8 L254.4,207.1 L258.2,204.5 L261.9,202.0 L265.5,199.6 L269.0,197.4 L272.5,195.3 L275.8,193.3 L279.1,191.4 L282.4,189.6 L285.5,188.0 L288.6,186.5 L291.7,185.1 L294.7,183.8 L297.6,182.6 L300.5,181.5 L303.3,180.4 L306.1,179.4 L308.8,178.5 L311.5,177.6 L314.2,176.7 L316.8,175.9 L319.4,175.2 L326.0,174.0 L332.2,173.0 L338.0,172.2 L343.3,171.6 L348.1,171.2 L352.4,171.1 L356.3,171.3 L359.6,171.7 L362.5,172.4 L365.0,173.4 L367.0,174.6 L368.6,176.0 L369.8,177.7 L370.7,179.6 L371.2,181.7 L371.4,183.9 L371.3,186.3 L371.0,188.8 L370.4,191.4 L369.6,194.2 L368.7,197.0 L367.6,199.8 L366.4,202.7 L365.1,205.6 L363.8,208.4 L362.3,211.3 L360.9,214.1 L359.4,216.9 L357.9,219.6 L356.4,221.9 L354.9,223.6 L353.4,224.2 L351.8,223.6 L350.1,221.6 L348.2,218.2 L346.0,213.4 L343.6,207.5 L340.8,200.4 L337.5,192.6 L333.8,184.3 L329.6,175.8 L324.8,167.4 L319.5,159.6 L313.6,152.6 L307.2,146.8 L300.4,142.5 L293.0,139.9 L285.4,139.3 L277.4,139.4 L269.1,135.8 L260.4,134.3 L251.5,134.0 L242.4,134.7 L233.2,136.4 L223.8,139.0 L214.5,142.7 L205.2,147.3 L196.1,152.6 L187.1,158.7 L178.4,165.2 L169.9,172.1 L161.8,179.0 L154.0,185.9 L146.7,192.4 L139.7,198.7 L133.1,204.7 L127.0,210.3 L121.4,215.8 L116.1,220.9 L111.4,225.9 L107.1,230.6 L103.3,235.0 L100.0,239.3 L97.2,243.4" fill="none" stroke="#f59e0b" stroke-width="3" opacity="0.9"/>
<rect x="516" y="92" width="430" height="270" rx="9" fill="#111827" stroke="#253044"/>
<text x="534" y="120" fill="#e5e7eb" font-family="Inter,Arial,sans-serif" font-size="16" font-weight="700">normal-hr90</text>
<line x1="558" y1="320" x2="904" y2="320" stroke="#334155"/>
<line x1="558" y1="134" x2="558" y2="320" stroke="#334155"/>
<text x="558" y="349" fill="#9ca3af" font-family="Inter,Arial,sans-serif" font-size="11">LA volume axis</text>
<text x="526" y="129" fill="#9ca3af" font-family="Inter,Arial,sans-serif" font-size="11" transform="rotate(-90 526,129)">LAP</text>
<path d="M567.9,264.9 L566.4,268.8 L565.8,272.5 L566.2,276.0 L567.5,279.3 L569.8,282.5 L573.1,285.5 L577.1,288.4 L581.5,291.1 L586.2,293.6 L591.0,296.0 L595.8,298.2 L600.7,300.1 L605.6,301.9 L610.5,303.6 L615.5,305.2 L620.5,306.7 L625.6,308.2 L630.7,309.5 L635.8,310.8 L641.0,312.0 L646.2,313.1 L651.4,314.1 L656.7,315.1 L661.9,316.1 L667.2,317.0 L672.5,317.8 L677.9,318.6 L683.2,319.3 L688.6,320.0 L693.9,317.9 L699.1,315.0 L704.2,312.1 L709.2,309.2 L714.2,306.4 L719.0,303.6 L723.8,300.9 L728.4,298.1 L733.0,295.4 L737.5,292.8 L741.9,290.2 L746.2,287.6 L750.5,285.6 L754.8,286.5 L759.1,287.3 L763.4,287.3 L767.7,287.1 L772.0,286.3 L776.1,283.5 L780.2,280.7 L784.2,278.0 L788.1,275.3 L792.0,272.7 L795.7,270.1 L799.4,267.6 L803.0,265.2 L806.5,262.8 L809.9,260.5 L813.3,258.2 L816.6,255.9 L819.8,253.7 L823.0,251.6 L826.1,249.5 L829.1,247.4 L832.0,245.4 L834.9,243.4 L837.8,241.5 L840.6,239.6 L843.3,237.7 L846.0,235.9 L848.6,234.1 L851.1,232.4 L853.6,230.7 L856.1,229.0 L858.5,227.4 L860.8,225.6 L863.1,222.4 L865.2,219.3 L867.3,216.4 L869.2,213.5 L871.1,210.8 L872.9,208.2 L874.7,205.8 L876.3,203.4 L877.9,201.2 L879.5,199.2 L881.0,197.3 L882.4,195.5 L883.8,193.8 L885.1,192.3 L886.4,190.9 L887.6,189.7 L888.9,188.6 L890.1,187.5 L891.2,186.6 L892.4,185.7 L893.5,184.8 L894.6,184.0 L895.7,183.3 L896.7,182.7 L897.8,182.0 L898.8,181.5 L899.8,180.9 L900.8,180.5 L901.8,180.0 L902.7,178.9 L903.4,178.0 L903.8,177.3 L904.0,176.8 L903.9,176.6 L903.4,176.6 L902.6,176.9 L901.4,177.5 L899.8,178.3 L897.9,179.5 L895.6,180.9 L893.0,182.6 L890.0,184.5 L886.8,186.6 L883.3,189.0 L879.5,191.5 L875.6,194.2 L871.4,197.0 L867.1,199.4 L862.6,200.9 L857.9,201.1 L852.9,199.7 L847.6,196.7 L841.8,192.1 L835.6,186.1 L828.7,178.9 L821.3,171.0 L813.1,162.8 L804.3,154.7 L794.7,147.4 L784.5,141.2 L773.9,136.7 L762.8,134.2 L751.3,134.0 L739.4,136.5 L727.3,141.8 L715.2,149.5 L703.3,158.3 L691.7,168.1 L680.6,178.1 L669.7,182.4 L659.2,187.6 L649.1,193.5 L639.4,200.0 L630.3,206.7 L621.7,213.4 L613.7,219.7 L606.3,225.8 L599.5,231.6 L593.3,237.1 L587.8,242.3 L582.9,247.3 L578.8,252.1 L575.3,256.6 L572.6,260.9" fill="none" stroke="#cbd5e1" stroke-width="3" opacity="0.86"/>
<path d="M559.3,264.9 L558.2,268.8 L558.0,272.5 L558.8,276.0 L560.5,279.3 L563.2,282.5 L566.7,285.5 L571.0,288.4 L575.8,291.1 L580.8,293.6 L585.8,296.0 L590.9,298.2 L596.0,300.1 L600.9,301.9 L605.9,303.6 L611.0,305.2 L616.1,306.7 L621.2,308.2 L626.4,309.5 L631.6,310.8 L636.8,312.0 L642.0,313.1 L647.3,314.1 L652.6,315.1 L658.0,316.1 L663.3,317.0 L668.7,317.8 L674.1,318.6 L679.5,319.3 L684.9,320.0 L690.2,317.9 L695.5,315.0 L700.7,312.1 L705.7,309.2 L710.7,306.4 L715.6,303.6 L720.4,300.9 L725.1,298.1 L729.7,295.4 L734.3,292.8 L738.7,290.2 L743.1,287.6 L743.7,285.6 L725.4,286.5 L706.7,287.3 L689.3,287.3 L673.0,287.1 L658.0,286.3 L644.0,283.5 L631.1,280.7 L619.3,278.0 L608.5,275.3 L598.8,272.7 L590.1,270.1 L582.5,267.6 L575.9,265.2 L570.3,262.8 L565.7,260.5 L562.2,258.2 L559.6,255.9 L558.0,253.7 L561.3,251.6 L568.1,249.5 L574.7,247.4 L581.2,245.4 L587.5,243.4 L593.8,241.5 L600.0,239.6 L606.1,237.7 L612.0,235.9 L617.9,234.1 L623.6,232.4 L629.3,230.7 L634.9,229.0 L640.3,227.4 L645.7,225.6 L650.9,222.4 L656.0,219.3 L661.0,216.4 L665.8,213.5 L670.6,210.8 L675.2,208.2 L679.6,205.8 L684.0,203.4 L688.3,201.2 L692.4,199.2 L696.5,197.3 L700.5,195.5 L704.4,193.8 L708.2,192.3 L712.0,190.9 L715.7,189.7 L719.3,188.6 L722.8,187.5 L726.3,186.6 L729.7,185.7 L733.1,184.8 L736.4,184.0 L739.7,183.3 L742.9,182.7 L746.1,182.0 L749.2,181.5 L752.3,180.9 L755.4,180.5 L758.4,180.0 L766.3,178.9 L773.7,178.0 L780.5,177.3 L786.7,176.8 L792.3,176.6 L797.3,176.6 L801.7,176.9 L805.4,177.5 L808.6,178.3 L811.1,179.5 L813.1,180.9 L814.5,182.6 L815.4,184.5 L815.8,186.6 L815.8,189.0 L815.4,191.5 L814.6,194.2 L813.4,197.0 L812.0,199.4 L810.2,200.9 L808.0,201.1 L805.5,199.7 L802.4,196.7 L798.9,192.1 L794.8,186.1 L789.9,178.9 L784.4,171.0 L778.0,162.8 L770.9,154.7 L762.9,147.4 L754.3,141.2 L745.2,136.7 L735.5,134.2 L725.3,134.0 L714.8,136.5 L703.8,141.8 L692.9,149.5 L682.1,158.3 L671.5,168.1 L661.4,178.1 L651.4,182.4 L641.8,187.6 L632.5,193.5 L623.7,200.0 L615.4,206.7 L607.5,213.4 L600.2,219.7 L593.5,225.8 L587.3,231.6 L581.7,237.1 L576.7,242.3 L572.4,247.3 L568.8,252.1 L565.8,256.6 L563.6,260.9" fill="none" stroke="#f59e0b" stroke-width="3" opacity="0.9"/>
<rect x="52" y="388" width="430" height="270" rx="9" fill="#111827" stroke="#253044"/>
<text x="70" y="416" fill="#e5e7eb" font-family="Inter,Arial,sans-serif" font-size="16" font-weight="700">preload-low</text>
<line x1="94" y1="616" x2="440" y2="616" stroke="#334155"/>
<line x1="94" y1="430" x2="94" y2="616" stroke="#334155"/>
<text x="94" y="645" fill="#9ca3af" font-family="Inter,Arial,sans-serif" font-size="11">LA volume axis</text>
<text x="62" y="425" fill="#9ca3af" font-family="Inter,Arial,sans-serif" font-size="11" transform="rotate(-90 62,425)">LAP</text>
<path d="M131.2,546.3 L128.2,549.8 L125.4,553.0 L123.1,556.2 L121.1,559.1 L119.4,561.9 L118.1,564.6 L117.2,567.1 L116.8,569.5 L116.7,571.8 L117.0,573.9 L117.8,576.0 L119.1,577.9 L120.8,579.7 L122.9,581.5 L125.4,583.1 L128.2,584.6 L131.2,586.1 L134.3,587.5 L137.5,588.6 L140.7,589.6 L143.9,590.6 L147.1,591.5 L150.4,592.3 L153.6,593.2 L156.9,593.9 L160.2,594.6 L163.5,595.3 L166.8,596.0 L170.1,596.6 L173.4,597.2 L176.8,597.7 L180.1,598.2 L183.5,598.7 L186.9,599.1 L190.3,599.6 L193.7,600.0 L197.0,600.4 L200.4,600.7 L203.9,601.1 L207.3,601.4 L210.7,601.7 L214.1,602.0 L217.5,602.2 L221.0,602.5 L224.4,602.7 L227.8,603.0 L231.3,603.2 L234.7,603.4 L238.2,604.9 L241.8,608.9 L245.4,612.4 L249.1,615.0 L252.9,616.0 L256.6,616.0 L260.3,616.0 L264.0,616.0 L267.7,616.0 L271.5,616.0 L275.2,616.0 L278.9,616.0 L282.6,616.0 L286.3,616.0 L290.0,616.0 L293.7,616.0 L297.4,616.0 L301.0,616.0 L304.7,616.0 L308.4,616.0 L312.1,616.0 L315.7,616.0 L319.4,616.0 L323.1,616.0 L326.7,616.0 L330.4,616.0 L334.0,616.0 L337.7,616.0 L341.3,616.0 L344.9,614.2 L348.4,611.1 L351.9,608.1 L355.3,605.1 L358.6,602.3 L361.8,599.4 L364.9,596.7 L368.0,593.9 L371.1,591.3 L374.0,588.7 L376.9,585.3 L379.7,581.3 L382.3,577.4 L384.9,573.6 L387.4,570.0 L389.9,566.5 L392.2,563.1 L394.4,559.8 L396.6,556.7 L398.7,553.7 L400.8,550.9 L402.7,548.1 L404.6,545.5 L406.5,543.1 L408.3,540.8 L410.0,538.6 L411.7,536.5 L413.4,534.6 L415.0,532.8 L416.5,531.1 L418.1,529.5 L419.6,527.9 L421.0,526.5 L422.4,525.1 L423.8,523.8 L425.2,522.6 L426.5,521.4 L427.9,520.3 L429.1,519.2 L430.4,518.2 L431.7,517.2 L432.9,516.3 L434.1,515.4 L435.3,514.6 L436.4,513.1 L437.4,511.9 L438.3,510.8 L439.0,509.9 L439.5,509.2 L439.9,508.7 L440.0,508.4 L439.9,508.3 L439.6,508.5 L439.1,508.8 L438.5,509.4 L437.6,510.1 L436.5,511.0 L435.3,512.1 L433.9,513.4 L432.4,514.8 L430.7,516.3 L429.0,517.9 L427.2,519.6 L425.3,521.4 L423.3,523.2 L421.3,525.1 L419.3,527.0 L417.3,529.0 L415.3,530.6 L413.2,531.6 L411.2,531.7 L409.0,530.5 L406.8,528.1 L404.4,524.2 L401.7,519.1 L398.7,512.8 L395.4,505.4 L391.7,497.2 L387.5,488.6 L382.8,479.8 L377.5,471.2 L371.8,463.1 L365.6,455.8 L359.1,449.7 L352.2,444.9 L344.9,441.9 L337.3,440.8 L329.4,435.2 L321.2,431.6 L312.7,430.2 L304.0,430.0 L295.0,430.7 L285.8,432.5 L276.5,435.2 L267.1,438.9 L257.6,443.4 L248.1,448.8 L238.7,454.8 L229.3,461.3 L220.2,468.1 L211.5,475.0 L203.0,481.7 L195.0,488.3 L187.3,494.5 L179.9,500.4 L173.0,506.0 L166.4,511.4 L160.2,516.5 L154.4,521.4 L149.0,526.0 L144.0,530.5 L139.4,534.7 L135.1,538.7" fill="none" stroke="#cbd5e1" stroke-width="3" opacity="0.86"/>
<path d="M128.3,546.3 L125.4,549.8 L122.8,553.0 L120.6,556.2 L118.7,559.1 L117.1,561.9 L116.0,564.6 L115.2,567.1 L114.8,569.5 L114.8,571.8 L115.3,573.9 L116.2,576.0 L117.5,577.9 L119.3,579.7 L121.5,581.5 L124.0,583.1 L126.9,584.6 L129.9,586.1 L133.1,587.5 L136.3,588.6 L139.6,589.6 L142.8,590.6 L146.1,591.5 L149.3,592.3 L152.6,593.2 L155.9,593.9 L159.2,594.6 L162.5,595.3 L165.8,596.0 L169.2,596.6 L172.5,597.2 L175.9,597.7 L179.2,598.2 L182.6,598.7 L186.0,599.1 L189.4,599.6 L192.8,600.0 L196.2,600.4 L199.6,600.7 L203.0,601.1 L206.5,601.4 L209.9,601.7 L213.3,602.0 L216.8,602.2 L220.2,602.5 L223.7,602.7 L227.1,603.0 L230.6,603.2 L234.0,603.4 L230.9,604.9 L215.9,608.9 L202.0,612.4 L189.2,615.0 L177.2,616.0 L166.2,616.0 L156.1,616.0 L146.8,616.0 L138.3,616.0 L130.6,616.0 L123.7,616.0 L117.5,616.0 L112.1,616.0 L107.4,616.0 L103.5,616.0 L100.2,616.0 L97.7,616.0 L95.8,616.0 L94.6,616.0 L94.0,616.0 L94.1,616.0 L96.0,616.0 L102.7,616.0 L109.4,616.0 L116.0,616.0 L122.6,616.0 L129.1,616.0 L135.6,616.0 L142.1,616.0 L148.4,614.2 L154.7,611.1 L160.8,608.1 L166.8,605.1 L172.8,602.3 L178.6,599.4 L184.3,596.7 L189.9,593.9 L195.4,591.3 L200.8,588.7 L206.0,585.3 L211.2,581.3 L216.2,577.4 L221.1,573.6 L225.9,570.0 L230.6,566.5 L235.1,563.1 L239.5,559.8 L243.9,556.7 L248.1,553.7 L252.2,550.9 L256.3,548.1 L260.2,545.5 L264.1,543.1 L267.8,540.8 L271.5,538.6 L275.1,536.5 L278.7,534.6 L282.2,532.8 L285.6,531.1 L288.9,529.5 L292.2,527.9 L295.4,526.5 L298.6,525.1 L301.7,523.8 L304.8,522.6 L307.8,521.4 L310.7,520.3 L313.7,519.2 L316.5,518.2 L319.4,517.2 L322.1,516.3 L324.9,515.4 L327.6,514.6 L334.0,513.1 L340.0,511.9 L345.7,510.8 L350.9,509.9 L355.8,509.2 L360.2,508.7 L364.3,508.4 L367.9,508.3 L371.1,508.5 L374.0,508.8 L376.5,509.4 L378.7,510.1 L380.5,511.0 L382.0,512.1 L383.2,513.4 L384.2,514.8 L384.9,516.3 L385.4,517.9 L385.7,519.6 L385.9,521.4 L385.8,523.2 L385.7,525.1 L385.4,527.0 L385.1,529.0 L384.6,530.6 L384.1,531.6 L383.5,531.7 L382.7,530.5 L381.7,528.1 L380.5,524.2 L379.0,519.1 L377.2,512.8 L374.9,505.4 L372.2,497.2 L369.0,488.6 L365.2,479.8 L360.8,471.2 L355.8,463.1 L350.4,455.8 L344.6,449.7 L338.4,444.9 L331.9,441.9 L324.9,440.8 L317.6,435.2 L310.0,431.6 L302.0,430.2 L293.8,430.0 L285.3,430.7 L276.6,432.5 L267.8,435.2 L258.8,438.9 L249.7,443.4 L240.6,448.8 L231.5,454.8 L222.5,461.3 L213.8,468.1 L205.3,475.0 L197.2,481.7 L189.4,488.3 L182.0,494.5 L174.9,500.4 L168.2,506.0 L161.9,511.4 L155.9,516.5 L150.3,521.4 L145.1,526.0 L140.3,530.5 L135.8,534.7 L131.7,538.7" fill="none" stroke="#f59e0b" stroke-width="3" opacity="0.9"/>
<rect x="516" y="388" width="430" height="270" rx="9" fill="#111827" stroke="#253044"/>
<text x="534" y="416" fill="#e5e7eb" font-family="Inter,Arial,sans-serif" font-size="16" font-weight="700">preload-high</text>
<line x1="558" y1="616" x2="904" y2="616" stroke="#334155"/>
<line x1="558" y1="430" x2="558" y2="616" stroke="#334155"/>
<text x="558" y="645" fill="#9ca3af" font-family="Inter,Arial,sans-serif" font-size="11">LA volume axis</text>
<text x="526" y="425" fill="#9ca3af" font-family="Inter,Arial,sans-serif" font-size="11" transform="rotate(-90 526,425)">LAP</text>
<path d="M593.6,587.7 L598.4,591.0 L603.2,593.9 L608.1,596.6 L613.1,599.1 L618.1,601.5 L623.1,603.7 L628.3,605.8 L633.4,607.8 L638.6,609.6 L643.8,611.4 L649.0,613.0 L654.3,614.6 L659.6,616.0 L664.9,614.7 L670.1,611.8 L675.2,608.9 L680.3,605.9 L685.2,603.0 L690.1,600.0 L694.9,597.1 L699.6,594.2 L704.2,591.2 L708.8,588.3 L713.2,585.5 L717.6,582.6 L721.9,579.8 L726.2,577.0 L730.3,574.2 L734.4,571.4 L738.5,568.7 L742.4,566.0 L746.3,563.3 L750.1,560.6 L753.8,558.0 L757.5,555.4 L761.1,552.9 L764.6,550.4 L768.1,547.9 L771.5,545.5 L774.8,543.0 L778.1,540.7 L781.3,538.3 L784.5,536.0 L787.6,533.7 L790.6,531.5 L793.6,529.3 L796.5,527.1 L799.4,525.2 L802.3,525.8 L805.2,527.0 L808.1,527.4 L811.1,527.6 L814.0,526.2 L816.8,523.9 L819.6,521.6 L822.3,519.4 L825.0,517.2 L827.6,515.1 L830.1,513.0 L832.6,511.0 L835.1,509.0 L837.5,507.1 L839.8,505.1 L842.1,503.3 L844.4,501.4 L846.6,499.6 L848.8,497.9 L850.9,496.1 L853.0,494.5 L855.0,492.8 L857.0,491.2 L859.0,489.6 L860.9,488.0 L862.7,486.5 L864.6,485.0 L866.4,483.5 L868.1,482.1 L869.9,480.7 L871.6,479.3 L873.2,478.0 L874.9,476.6 L876.5,475.3 L878.0,474.1 L879.6,472.8 L881.1,471.6 L882.5,470.4 L884.0,469.2 L885.4,467.5 L886.7,464.8 L888.0,462.2 L889.2,459.7 L890.3,457.3 L891.4,454.9 L892.5,452.7 L893.5,450.6 L894.4,448.6 L895.3,446.7 L896.1,444.9 L896.9,443.2 L897.7,441.6 L898.4,440.2 L899.1,438.8 L899.8,437.6 L900.4,436.4 L901.0,435.4 L901.6,434.5 L902.2,433.7 L902.8,432.9 L903.4,432.2 L903.8,431.2 L904.0,430.6 L904.0,430.2 L903.7,430.0 L903.0,430.1 L902.1,430.6 L900.7,431.4 L898.9,432.6 L896.8,434.2 L894.2,436.0 L891.4,438.2 L888.1,440.8 L884.5,443.6 L880.7,446.7 L876.5,450.0 L872.1,453.6 L867.6,457.4 L862.8,461.3 L857.9,465.4 L852.9,469.6 L847.8,473.8 L842.6,478.2 L837.5,482.5 L832.3,486.7 L827.2,491.0 L822.1,495.2 L817.1,499.4 L812.2,503.5 L807.4,507.6 L802.7,511.5 L798.2,515.4 L793.8,519.1 L789.6,522.8 L785.5,526.3 L781.6,529.6 L777.9,532.9 L774.4,535.7 L771.0,537.8 L767.7,538.7 L764.6,538.4 L761.4,536.7 L758.2,533.6 L754.9,529.1 L751.3,523.3 L747.6,516.4 L743.4,508.8 L738.9,500.5 L734.0,492.1 L728.6,483.7 L722.6,475.9 L716.3,468.8 L709.4,462.9 L702.1,458.3 L694.5,455.5 L686.5,454.5 L678.4,455.6 L670.2,458.8 L662.0,464.1 L654.0,469.7 L645.9,470.6 L637.9,472.5 L630.0,475.4 L622.3,479.3 L614.8,484.0 L607.6,489.5 L600.7,495.6 L594.3,502.2 L588.3,509.1 L582.9,516.0 L577.9,522.8 L573.5,529.4 L569.7,535.6 L566.5,541.5 L564.0,547.1 L562.2,552.5 L561.1,557.6 L560.9,562.5 L561.6,567.1 L563.3,571.5 L565.8,575.7 L569.1,579.7" fill="none" stroke="#cbd5e1" stroke-width="3" opacity="0.86"/>
<path d="M591.4,587.7 L596.3,591.0 L601.3,593.9 L606.3,596.6 L611.3,599.1 L616.4,601.5 L621.6,603.7 L626.8,605.8 L631.9,607.8 L637.1,609.6 L642.4,611.4 L647.6,613.0 L652.9,614.6 L658.3,616.0 L663.6,614.7 L668.8,611.8 L673.9,608.9 L679.0,605.9 L683.9,603.0 L688.8,600.0 L693.6,597.1 L698.3,594.2 L703.0,591.2 L707.6,588.3 L712.0,585.5 L716.5,582.6 L720.8,579.8 L725.0,577.0 L729.2,574.2 L733.3,571.4 L737.4,568.7 L741.3,566.0 L745.2,563.3 L749.0,560.6 L752.8,558.0 L756.5,555.4 L760.1,552.9 L763.6,550.4 L767.1,547.9 L770.5,545.5 L773.9,543.0 L777.2,540.7 L780.4,538.3 L783.6,536.0 L786.7,533.7 L789.7,531.5 L792.7,529.3 L795.7,527.1 L797.5,525.2 L784.9,525.8 L768.6,527.0 L753.4,527.4 L739.2,527.6 L725.8,526.2 L713.4,523.9 L701.8,521.6 L691.0,519.4 L681.0,517.2 L671.7,515.1 L663.2,513.0 L655.5,511.0 L648.5,509.0 L642.2,507.1 L636.6,505.1 L631.7,503.3 L627.4,501.4 L623.9,499.6 L621.0,497.9 L618.7,496.1 L617.1,494.5 L616.2,492.8 L618.4,491.2 L623.7,489.6 L628.9,488.0 L634.0,486.5 L639.0,485.0 L643.9,483.5 L648.8,482.1 L653.5,480.7 L658.2,479.3 L662.9,478.0 L667.4,476.6 L671.9,475.3 L676.3,474.1 L680.6,472.8 L684.9,471.6 L689.1,470.4 L693.2,469.2 L697.3,467.5 L701.2,464.8 L705.1,462.2 L708.8,459.7 L712.5,457.3 L716.0,454.9 L719.5,452.7 L722.9,450.6 L726.2,448.6 L729.4,446.7 L732.6,444.9 L735.6,443.2 L738.6,441.6 L741.6,440.2 L744.5,438.8 L747.3,437.6 L750.0,436.4 L752.7,435.4 L755.4,434.5 L758.0,433.7 L760.6,432.9 L763.1,432.2 L770.4,431.2 L777.2,430.6 L783.4,430.2 L789.0,430.0 L794.0,430.1 L798.3,430.6 L802.0,431.4 L805.1,432.6 L807.6,434.2 L809.4,436.0 L810.7,438.2 L811.4,440.8 L811.6,443.6 L811.3,446.7 L810.5,450.0 L809.4,453.6 L807.9,457.4 L806.1,461.3 L803.9,465.4 L801.6,469.6 L799.0,473.8 L796.2,478.2 L793.3,482.5 L790.4,486.7 L787.3,491.0 L784.2,495.2 L781.0,499.4 L777.9,503.5 L774.8,507.6 L771.7,511.5 L768.7,515.4 L765.7,519.1 L762.9,522.8 L760.1,526.3 L757.5,529.6 L754.9,532.9 L752.5,535.7 L750.2,537.8 L748.0,538.7 L745.8,538.4 L743.5,536.7 L741.2,533.6 L738.7,529.1 L736.0,523.3 L733.0,516.4 L729.5,508.8 L725.7,500.5 L721.4,492.1 L716.6,483.7 L711.3,475.9 L705.4,468.8 L699.1,462.9 L692.3,458.3 L685.2,455.5 L677.7,454.5 L670.0,455.6 L662.2,458.8 L654.4,464.1 L646.7,469.7 L639.0,470.6 L631.3,472.5 L623.8,475.4 L616.3,479.3 L609.1,484.0 L602.2,489.5 L595.6,495.6 L589.5,502.2 L583.7,509.1 L578.5,516.0 L573.7,522.8 L569.6,529.4 L565.9,535.6 L562.9,541.5 L560.6,547.1 L558.9,552.5 L558.0,557.6 L558.0,562.5 L558.9,567.1 L560.6,571.5 L563.3,575.7 L566.7,579.7" fill="none" stroke="#f59e0b" stroke-width="3" opacity="0.9"/>
<rect x="52" y="684" width="430" height="270" rx="9" fill="#111827" stroke="#253044"/>
<text x="70" y="712" fill="#e5e7eb" font-family="Inter,Arial,sans-serif" font-size="16" font-weight="700">afterload-high</text>
<line x1="94" y1="912" x2="440" y2="912" stroke="#334155"/>
<line x1="94" y1="726" x2="94" y2="912" stroke="#334155"/>
<text x="94" y="941" fill="#9ca3af" font-family="Inter,Arial,sans-serif" font-size="11">LA volume axis</text>
<text x="62" y="721" fill="#9ca3af" font-family="Inter,Arial,sans-serif" font-size="11" transform="rotate(-90 62,721)">LAP</text>
<path d="M160.4,912.0 L165.3,911.9 L170.2,911.6 L175.1,911.1 L179.9,910.4 L184.7,909.6 L189.5,908.6 L194.3,907.5 L199.0,906.3 L203.6,905.0 L208.2,903.6 L212.8,902.1 L217.3,900.5 L221.8,898.9 L226.2,897.1 L230.6,895.4 L234.9,893.5 L239.1,891.7 L243.3,889.8 L247.5,887.8 L251.6,885.9 L255.6,883.9 L259.5,881.9 L263.4,879.9 L267.3,877.8 L271.1,875.8 L274.8,873.8 L278.5,871.7 L282.1,869.7 L285.7,867.7 L289.1,865.6 L292.6,863.6 L296.0,861.6 L299.3,859.6 L302.6,857.6 L305.8,855.7 L309.0,853.7 L312.1,851.8 L315.1,849.8 L318.1,847.9 L321.1,846.0 L324.0,844.2 L326.8,842.3 L329.6,840.5 L332.4,838.7 L335.1,836.9 L337.7,835.2 L340.3,833.4 L342.9,831.7 L345.4,830.0 L347.9,829.9 L350.5,832.5 L353.1,834.0 L355.8,835.3 L358.4,835.6 L361.0,833.6 L363.6,831.7 L366.1,829.8 L368.5,827.9 L370.9,826.1 L373.3,824.3 L375.6,822.5 L377.8,820.8 L380.0,819.1 L382.2,817.5 L384.3,815.9 L386.4,814.3 L388.4,812.7 L390.4,811.2 L392.4,809.7 L394.3,808.3 L396.1,806.9 L398.0,805.5 L399.8,804.1 L401.5,802.7 L403.3,801.4 L405.0,800.1 L406.6,798.9 L408.2,797.6 L409.8,796.4 L411.4,795.2 L412.9,794.1 L414.4,792.9 L415.9,791.8 L417.3,790.7 L418.7,789.7 L420.1,788.6 L421.5,787.6 L422.8,785.2 L424.0,782.4 L425.1,779.8 L426.2,777.2 L427.2,774.8 L428.2,772.5 L429.1,770.2 L429.9,768.1 L430.7,766.1 L431.4,764.2 L432.1,762.4 L432.7,760.8 L433.3,759.2 L433.9,757.8 L434.5,756.5 L435.0,755.4 L435.4,754.3 L435.9,753.4 L436.3,752.6 L436.8,751.8 L437.2,751.2 L437.6,750.7 L438.0,750.1 L438.4,749.7 L438.7,749.3 L439.1,748.9 L439.5,748.6 L439.8,748.6 L440.0,747.9 L440.0,747.5 L439.8,747.2 L439.2,747.2 L438.4,747.6 L437.2,748.2 L435.6,749.1 L433.7,750.3 L431.4,751.9 L428.7,753.8 L425.7,756.0 L422.3,758.4 L418.6,761.2 L414.7,764.2 L410.5,767.4 L406.0,770.8 L401.4,774.4 L396.6,778.2 L391.6,782.0 L386.6,786.0 L381.5,790.0 L376.4,794.1 L371.3,798.2 L366.2,802.2 L361.2,806.1 L356.3,810.0 L351.5,813.8 L346.9,817.5 L342.3,821.1 L338.0,824.6 L333.8,827.7 L329.8,829.9 L326.0,830.8 L322.2,830.1 L318.4,827.9 L314.6,823.8 L310.6,818.2 L306.4,811.0 L301.8,802.5 L296.8,793.1 L291.3,782.9 L285.3,772.6 L278.6,762.4 L271.4,752.7 L263.5,744.0 L255.1,736.7 L246.1,731.1 L236.8,727.4 L227.1,726.0 L217.2,727.0 L207.0,730.7 L196.9,736.9 L187.0,744.5 L177.3,753.1 L168.1,762.7 L159.3,773.1 L151.2,784.3 L143.8,796.0 L137.2,808.1 L131.4,818.9 L126.5,827.1 L122.7,835.5 L120.0,844.1 L118.5,852.5 L118.4,860.6 L119.6,868.3 L122.1,875.6 L125.5,882.5 L129.8,889.1 L134.4,895.3 L139.1,900.7 L143.9,902.5 L148.8,904.0 L153.6,905.1 L158.4,905.7" fill="none" stroke="#cbd5e1" stroke-width="3" opacity="0.86"/>
<path d="M157.1,912.0 L162.2,911.9 L167.3,911.6 L172.3,911.1 L177.2,910.4 L182.0,909.6 L186.9,908.6 L191.6,907.5 L196.4,906.3 L201.1,905.0 L205.7,903.6 L210.3,902.1 L214.9,900.5 L219.4,898.9 L223.8,897.1 L228.2,895.4 L232.6,893.5 L236.8,891.7 L241.1,889.8 L245.2,887.8 L249.4,885.9 L253.4,883.9 L257.4,881.9 L261.3,879.9 L265.2,877.8 L269.0,875.8 L272.8,873.8 L276.5,871.7 L280.1,869.7 L283.7,867.7 L287.2,865.6 L290.7,863.6 L294.1,861.6 L297.5,859.6 L300.8,857.6 L304.0,855.7 L307.2,853.7 L310.3,851.8 L313.4,849.8 L316.4,847.9 L319.4,846.0 L322.3,844.2 L325.2,842.3 L328.0,840.5 L330.8,838.7 L333.5,836.9 L336.2,835.2 L338.8,833.4 L341.4,831.7 L343.9,830.0 L337.1,829.9 L313.2,832.5 L290.6,834.0 L269.5,835.3 L249.8,835.6 L231.4,833.6 L214.2,831.7 L198.2,829.8 L183.4,827.9 L169.8,826.1 L157.3,824.3 L145.8,822.5 L135.4,820.8 L126.0,819.1 L117.7,817.5 L110.3,815.9 L103.9,814.3 L98.5,812.7 L94.0,811.2 L97.0,809.7 L103.0,808.3 L108.9,806.9 L114.8,805.5 L120.5,804.1 L126.1,802.7 L131.7,801.4 L137.1,800.1 L142.5,798.9 L147.8,797.6 L153.0,796.4 L158.1,795.2 L163.2,794.1 L168.2,792.9 L173.0,791.8 L177.9,790.7 L182.6,789.7 L187.3,788.6 L191.8,787.6 L196.3,785.2 L200.7,782.4 L204.9,779.8 L209.1,777.2 L213.1,774.8 L217.0,772.5 L220.8,770.2 L224.6,768.1 L228.2,766.1 L231.8,764.2 L235.2,762.4 L238.6,760.8 L241.9,759.2 L245.1,757.8 L248.3,756.5 L251.4,755.4 L254.4,754.3 L257.4,753.4 L260.3,752.6 L263.2,751.8 L266.0,751.2 L268.8,750.7 L271.5,750.1 L274.2,749.7 L276.9,749.3 L279.5,748.9 L282.1,748.6 L284.6,748.6 L292.4,747.9 L299.6,747.5 L306.3,747.2 L312.3,747.2 L317.6,747.6 L322.4,748.2 L326.4,749.1 L329.8,750.3 L332.6,751.9 L334.8,753.8 L336.4,756.0 L337.4,758.4 L337.9,761.2 L337.9,764.2 L337.4,767.4 L336.6,770.8 L335.3,774.4 L333.7,778.2 L331.9,782.0 L329.8,786.0 L327.5,790.0 L325.0,794.1 L322.5,798.2 L319.8,802.2 L317.1,806.1 L314.3,810.0 L311.6,813.8 L308.9,817.5 L306.2,821.1 L303.6,824.6 L301.2,827.7 L298.8,829.9 L296.4,830.8 L294.1,830.1 L291.7,827.9 L289.2,823.8 L286.4,818.2 L283.4,811.0 L279.9,802.5 L276.0,793.1 L271.5,782.9 L266.5,772.6 L260.8,762.4 L254.4,752.7 L247.4,744.0 L239.7,736.7 L231.5,731.1 L222.9,727.4 L213.9,726.0 L204.6,727.0 L195.1,730.7 L185.5,736.9 L176.2,744.5 L167.0,753.1 L158.3,762.7 L150.0,773.1 L142.4,784.3 L135.4,796.0 L129.2,808.1 L123.8,818.9 L119.3,827.1 L115.8,835.5 L113.4,844.1 L112.3,852.5 L112.5,860.6 L114.0,868.3 L116.7,875.6 L120.4,882.5 L124.9,889.1 L129.8,895.3 L134.8,900.7 L139.8,902.5 L144.8,904.0 L149.8,905.1 L154.8,905.7" fill="none" stroke="#f59e0b" stroke-width="3" opacity="0.9"/>
<rect x="516" y="684" width="430" height="270" rx="9" fill="#111827" stroke="#253044"/>
<text x="534" y="712" fill="#e5e7eb" font-family="Inter,Arial,sans-serif" font-size="16" font-weight="700">contractility-low</text>
<line x1="558" y1="912" x2="904" y2="912" stroke="#334155"/>
<line x1="558" y1="726" x2="558" y2="912" stroke="#334155"/>
<text x="558" y="941" fill="#9ca3af" font-family="Inter,Arial,sans-serif" font-size="11">LA volume axis</text>
<text x="526" y="721" fill="#9ca3af" font-family="Inter,Arial,sans-serif" font-size="11" transform="rotate(-90 526,721)">LAP</text>
<path d="M736.9,900.3 L739.1,902.4 L741.4,904.3 L743.7,905.9 L746.0,907.2 L748.3,908.4 L750.7,909.4 L753.1,910.2 L755.5,910.8 L757.9,911.3 L760.3,911.7 L762.8,911.9 L765.2,912.0 L767.6,912.0 L770.0,911.9 L772.5,911.7 L774.9,911.4 L777.3,911.0 L779.6,910.6 L782.0,910.1 L784.3,909.5 L786.7,908.9 L789.0,908.2 L791.3,907.5 L793.5,906.7 L795.8,905.9 L798.0,905.1 L800.1,904.3 L802.3,903.4 L804.4,902.5 L806.6,901.6 L808.6,900.6 L810.7,899.7 L812.7,898.7 L814.7,897.7 L816.7,896.8 L818.6,895.8 L820.6,894.8 L822.4,893.8 L824.3,892.8 L826.1,891.8 L828.0,890.8 L829.7,889.8 L831.5,888.8 L833.2,887.8 L834.9,886.8 L836.6,885.8 L838.2,884.9 L839.8,883.9 L841.4,882.9 L843.0,881.9 L844.6,882.3 L846.2,885.1 L847.9,888.0 L849.7,890.6 L851.6,892.9 L853.4,891.6 L855.2,890.3 L857.0,889.0 L858.7,887.7 L860.4,886.4 L862.0,885.2 L863.6,884.0 L865.2,882.8 L866.8,881.6 L868.3,880.5 L869.8,879.4 L871.2,878.3 L872.6,877.2 L874.0,876.1 L875.4,875.1 L876.7,874.1 L878.0,873.1 L879.3,872.2 L880.6,871.2 L881.8,870.3 L883.0,869.4 L884.2,868.5 L885.3,867.7 L886.4,866.8 L887.5,866.0 L888.6,865.2 L889.7,864.4 L890.7,863.6 L891.7,862.8 L892.7,862.1 L893.7,861.1 L894.6,858.6 L895.5,856.2 L896.2,853.9 L896.9,851.6 L897.6,849.4 L898.2,847.4 L898.7,845.4 L899.2,843.5 L899.6,841.7 L900.0,840.0 L900.4,838.6 L900.7,837.1 L901.0,835.8 L901.2,834.5 L901.4,833.4 L901.6,832.4 L901.8,831.4 L902.0,830.7 L902.1,830.0 L902.2,829.4 L902.3,828.9 L902.4,828.6 L902.5,828.2 L902.6,828.0 L902.7,827.7 L902.7,827.6 L902.8,827.4 L902.9,827.3 L903.0,827.3 L903.1,827.3 L903.2,827.3 L903.3,827.4 L903.3,827.5 L903.5,827.6 L903.6,827.7 L903.7,827.9 L903.9,828.1 L904.0,828.3 L904.0,827.8 L903.9,827.5 L903.7,827.3 L903.4,827.3 L902.9,827.5 L902.2,827.8 L901.3,828.2 L900.3,828.8 L899.1,829.6 L897.7,830.6 L896.1,831.7 L894.4,832.9 L892.5,834.3 L890.5,835.8 L888.4,837.4 L886.1,839.2 L883.8,841.0 L881.4,842.9 L878.9,844.8 L876.4,846.8 L873.8,848.9 L871.2,850.6 L868.6,851.5 L866.0,851.3 L863.2,849.5 L860.2,846.2 L857.0,841.2 L853.4,834.6 L849.3,826.5 L844.8,817.2 L840.0,806.8 L834.8,795.6 L829.2,784.1 L823.3,772.5 L816.9,761.5 L810.3,751.2 L803.3,742.3 L796.1,735.0 L788.6,729.7 L781.1,726.6 L773.5,726.0 L766.1,727.9 L758.8,732.4 L751.9,738.3 L745.4,745.0 L739.7,752.6 L734.9,760.8 L731.1,769.5 L728.4,778.5 L726.7,787.6 L726.0,796.7 L726.0,805.7 L726.1,814.6 L726.4,823.4 L726.9,831.7 L727.5,839.4 L728.4,846.6 L729.4,853.1 L730.6,859.1 L731.9,864.6 L733.4,869.6 L735.0,874.2 L736.7,878.3 L738.5,882.0 L740.4,885.4 L742.3,888.4" fill="none" stroke="#cbd5e1" stroke-width="3" opacity="0.86"/>
<path d="M731.4,900.3 L733.7,902.4 L736.0,904.3 L738.4,905.9 L740.7,907.2 L743.2,908.4 L745.6,909.4 L748.1,910.2 L750.5,910.8 L753.0,911.3 L755.5,911.7 L758.0,911.9 L760.5,912.0 L763.0,912.0 L765.5,911.9 L768.0,911.7 L770.4,911.4 L772.9,911.0 L775.3,910.6 L777.7,910.1 L780.2,909.5 L782.5,908.9 L784.9,908.2 L787.2,907.5 L789.6,906.7 L791.8,905.9 L794.1,905.1 L796.4,904.3 L798.6,903.4 L800.8,902.5 L802.9,901.6 L805.0,900.6 L807.1,899.7 L809.2,898.7 L811.3,897.7 L813.3,896.8 L815.3,895.8 L817.3,894.8 L819.2,893.8 L821.1,892.8 L823.0,891.8 L824.8,890.8 L826.6,889.8 L828.4,888.8 L830.2,887.8 L832.0,886.8 L833.7,885.8 L835.3,884.9 L837.0,883.9 L838.6,882.9 L840.2,881.9 L833.0,882.3 L809.6,885.1 L780.4,888.0 L753.2,890.6 L727.8,892.9 L704.1,891.6 L682.0,890.3 L661.5,889.0 L642.5,887.7 L625.0,886.4 L608.9,885.2 L594.2,884.0 L580.8,882.8 L568.8,881.6 L558.0,880.5 L563.0,879.4 L568.7,878.3 L574.4,877.2 L579.9,876.1 L585.3,875.1 L590.7,874.1 L596.0,873.1 L601.2,872.2 L606.3,871.2 L611.3,870.3 L616.3,869.4 L621.2,868.5 L626.0,867.7 L630.7,866.8 L635.4,866.0 L639.9,865.2 L644.5,864.4 L648.9,863.6 L653.3,862.8 L657.6,862.1 L661.8,861.1 L665.9,858.6 L670.0,856.2 L673.9,853.9 L677.7,851.6 L681.4,849.4 L684.9,847.4 L688.4,845.4 L691.9,843.5 L695.2,841.7 L698.4,840.0 L701.6,838.6 L704.6,837.1 L707.6,835.8 L710.6,834.5 L713.4,833.4 L716.2,832.4 L719.0,831.4 L721.7,830.7 L724.3,830.0 L726.9,829.4 L729.4,828.9 L731.9,828.6 L734.4,828.2 L736.8,828.0 L739.2,827.7 L741.5,827.6 L743.9,827.4 L746.2,827.3 L748.4,827.3 L750.6,827.3 L752.9,827.3 L755.0,827.4 L757.2,827.5 L759.3,827.6 L761.5,827.7 L763.6,827.9 L765.7,828.1 L767.7,828.3 L774.4,827.8 L780.7,827.5 L786.5,827.3 L791.9,827.3 L796.9,827.5 L801.4,827.8 L805.5,828.2 L809.1,828.8 L812.4,829.6 L815.2,830.6 L817.7,831.7 L819.8,832.9 L821.6,834.3 L823.1,835.8 L824.3,837.4 L825.1,839.2 L825.8,841.0 L826.2,842.9 L826.4,844.8 L826.5,846.8 L826.4,848.9 L826.1,850.6 L825.7,851.5 L825.2,851.3 L824.4,849.5 L823.3,846.2 L821.9,841.2 L820.0,834.6 L817.6,826.5 L814.7,817.2 L811.3,806.8 L807.5,795.6 L803.3,784.1 L798.6,772.5 L793.5,761.5 L788.0,751.2 L782.1,742.3 L775.9,735.0 L769.5,729.7 L762.9,726.6 L756.2,726.0 L749.6,727.9 L743.1,732.4 L736.9,738.3 L731.2,745.0 L726.2,752.6 L722.0,760.8 L718.9,769.5 L716.8,778.5 L715.7,787.6 L715.5,796.7 L716.0,805.7 L716.6,814.6 L717.4,823.4 L718.3,831.7 L719.3,839.4 L720.6,846.6 L722.0,853.1 L723.6,859.1 L725.2,864.6 L727.0,869.6 L728.9,874.2 L730.9,878.3 L732.8,882.0 L734.8,885.4 L736.8,888.4" fill="none" stroke="#f59e0b" stroke-width="3" opacity="0.9"/>
<rect x="52" y="980" width="430" height="270" rx="9" fill="#111827" stroke="#253044"/>
<text x="70" y="1008" fill="#e5e7eb" font-family="Inter,Arial,sans-serif" font-size="16" font-weight="700">contractility-high</text>
<line x1="94" y1="1208" x2="440" y2="1208" stroke="#334155"/>
<line x1="94" y1="1022" x2="94" y2="1208" stroke="#334155"/>
<text x="94" y="1237" fill="#9ca3af" font-family="Inter,Arial,sans-serif" font-size="11">LA volume axis</text>
<text x="62" y="1017" fill="#9ca3af" font-family="Inter,Arial,sans-serif" font-size="11" transform="rotate(-90 62,1017)">LAP</text>
<path d="M117.6,1165.3 L119.0,1168.6 L120.7,1171.7 L122.8,1174.6 L125.2,1177.4 L127.8,1180.0 L130.8,1182.5 L133.9,1184.8 L137.3,1187.0 L140.9,1188.8 L144.8,1190.6 L148.8,1192.3 L153.0,1193.9 L157.5,1195.3 L162.1,1196.7 L166.9,1198.0 L171.7,1199.2 L176.7,1200.4 L181.8,1201.4 L186.8,1202.4 L192.0,1203.4 L197.1,1204.3 L202.3,1205.1 L207.5,1205.9 L212.7,1206.6 L217.9,1207.3 L223.1,1208.0 L228.3,1205.0 L233.3,1201.9 L238.3,1198.9 L243.1,1195.9 L247.9,1192.9 L252.6,1190.0 L257.2,1187.1 L261.7,1184.2 L266.1,1181.4 L270.4,1178.6 L274.7,1175.9 L278.9,1173.2 L283.0,1170.6 L287.0,1167.9 L291.0,1165.4 L294.8,1162.8 L298.6,1160.3 L302.3,1157.9 L306.0,1155.4 L309.6,1153.1 L313.1,1150.7 L316.5,1148.4 L319.9,1146.1 L323.3,1145.6 L326.7,1147.1 L330.1,1147.8 L333.5,1148.1 L336.9,1146.5 L340.2,1144.1 L343.4,1141.7 L346.6,1139.4 L349.7,1137.2 L352.7,1135.0 L355.7,1132.8 L358.6,1130.7 L361.5,1128.6 L364.3,1126.6 L367.0,1124.6 L369.7,1122.7 L372.3,1120.8 L374.8,1118.9 L377.4,1117.1 L379.8,1115.3 L382.2,1113.5 L384.6,1111.8 L386.9,1110.1 L389.2,1108.5 L391.4,1106.9 L393.5,1105.3 L395.7,1103.8 L397.7,1102.3 L399.8,1100.8 L401.8,1099.3 L403.7,1097.9 L405.7,1096.5 L407.5,1095.1 L409.4,1093.8 L411.2,1092.5 L412.9,1091.2 L414.7,1090.0 L416.4,1088.7 L418.0,1086.5 L419.6,1083.8 L421.0,1081.3 L422.5,1078.8 L423.8,1076.5 L425.1,1074.2 L426.3,1072.0 L427.5,1069.9 L428.6,1067.9 L429.6,1066.0 L430.7,1064.3 L431.6,1062.6 L432.5,1061.0 L433.4,1059.6 L434.3,1058.2 L435.1,1057.0 L435.9,1055.9 L436.6,1054.8 L437.3,1053.9 L438.1,1053.0 L438.8,1052.3 L439.4,1051.1 L439.8,1050.3 L440.0,1049.8 L439.9,1049.4 L439.6,1049.3 L438.9,1049.5 L437.9,1050.0 L436.5,1050.8 L434.8,1051.8 L432.7,1053.2 L430.4,1054.8 L427.7,1056.6 L424.9,1058.6 L421.8,1060.8 L418.5,1063.2 L415.1,1065.7 L411.5,1068.4 L407.9,1071.1 L404.2,1073.9 L400.5,1076.7 L396.8,1079.5 L393.1,1082.3 L389.5,1085.1 L385.9,1087.9 L382.4,1090.6 L379.0,1093.3 L375.7,1095.9 L372.5,1098.4 L369.5,1100.8 L366.6,1103.0 L363.8,1105.2 L361.1,1107.3 L358.6,1109.3 L356.2,1111.2 L353.9,1113.1 L351.8,1114.8 L349.8,1116.4 L347.9,1117.7 L346.0,1118.3 L344.2,1117.9 L342.4,1116.2 L340.4,1113.2 L338.3,1108.8 L335.8,1103.1 L333.0,1096.2 L329.8,1088.4 L326.0,1079.8 L321.6,1070.8 L316.6,1061.6 L311.0,1052.7 L304.6,1044.3 L297.6,1036.9 L289.9,1030.7 L281.6,1025.9 L272.9,1023.0 L263.7,1022.0 L254.2,1023.2 L244.6,1026.6 L234.9,1032.2 L225.3,1039.0 L215.9,1046.6 L206.5,1048.6 L197.2,1051.5 L188.1,1055.4 L179.3,1060.2 L170.7,1065.7 L162.4,1072.0 L154.6,1078.6 L147.2,1085.6 L140.2,1092.6 L133.7,1099.6 L127.8,1106.2 L122.3,1112.4 L117.4,1118.4 L112.9,1124.1 L109.0,1129.5 L105.6,1134.6 L102.7,1139.4 L100.4,1144.0 L98.5,1148.4 L97.2,1152.6 L96.4,1156.5" fill="none" stroke="#cbd5e1" stroke-width="3" opacity="0.86"/>
<path d="M115.8,1165.3 L117.3,1168.6 L119.1,1171.7 L121.3,1174.6 L123.7,1177.4 L126.4,1180.0 L129.4,1182.5 L132.7,1184.8 L136.1,1187.0 L139.8,1188.8 L143.7,1190.6 L147.8,1192.3 L152.1,1193.9 L156.5,1195.3 L161.2,1196.7 L166.0,1198.0 L170.9,1199.2 L176.0,1200.4 L181.0,1201.4 L186.2,1202.4 L191.3,1203.4 L196.5,1204.3 L201.7,1205.1 L206.9,1205.9 L212.1,1206.6 L217.4,1207.3 L222.6,1208.0 L227.8,1205.0 L232.8,1201.9 L237.8,1198.9 L242.7,1195.9 L247.4,1192.9 L252.1,1190.0 L256.7,1187.1 L261.2,1184.2 L265.7,1181.4 L270.0,1178.6 L274.3,1175.9 L278.5,1173.2 L282.6,1170.6 L286.6,1167.9 L290.6,1165.4 L294.4,1162.8 L298.2,1160.3 L302.0,1157.9 L305.6,1155.4 L309.2,1153.1 L312.7,1150.7 L316.2,1148.4 L319.6,1146.1 L312.4,1145.6 L292.5,1147.1 L274.0,1147.8 L256.7,1148.1 L240.6,1146.5 L225.6,1144.1 L211.6,1141.7 L198.7,1139.4 L186.8,1137.2 L175.9,1135.0 L165.9,1132.8 L156.8,1130.7 L148.6,1128.6 L141.4,1126.6 L134.9,1124.6 L129.4,1122.7 L124.6,1120.8 L120.7,1118.9 L117.5,1117.1 L122.0,1115.3 L128.0,1113.5 L133.9,1111.8 L139.7,1110.1 L145.4,1108.5 L151.0,1106.9 L156.5,1105.3 L161.9,1103.8 L167.2,1102.3 L172.4,1100.8 L177.6,1099.3 L182.7,1097.9 L187.7,1096.5 L192.6,1095.1 L197.4,1093.8 L202.1,1092.5 L206.8,1091.2 L211.4,1090.0 L215.9,1088.7 L220.3,1086.5 L224.6,1083.8 L228.8,1081.3 L232.9,1078.8 L236.9,1076.5 L240.8,1074.2 L244.6,1072.0 L248.2,1069.9 L251.8,1067.9 L255.4,1066.0 L258.8,1064.3 L262.1,1062.6 L265.4,1061.0 L268.6,1059.6 L271.7,1058.2 L274.8,1057.0 L277.8,1055.9 L280.8,1054.8 L283.7,1053.9 L286.5,1053.0 L289.3,1052.3 L297.3,1051.1 L304.6,1050.3 L311.5,1049.8 L317.7,1049.4 L323.4,1049.3 L328.4,1049.5 L332.8,1050.0 L336.5,1050.8 L339.7,1051.8 L342.3,1053.2 L344.4,1054.8 L346.0,1056.6 L347.1,1058.6 L347.8,1060.8 L348.2,1063.2 L348.2,1065.7 L348.0,1068.4 L347.5,1071.1 L346.7,1073.9 L345.8,1076.7 L344.8,1079.5 L343.7,1082.3 L342.4,1085.1 L341.2,1087.9 L339.9,1090.6 L338.6,1093.3 L337.2,1095.9 L336.0,1098.4 L334.7,1100.8 L333.5,1103.0 L332.3,1105.2 L331.2,1107.3 L330.1,1109.3 L329.1,1111.2 L328.2,1113.1 L327.3,1114.8 L326.5,1116.4 L325.7,1117.7 L325.0,1118.3 L324.2,1117.9 L323.3,1116.2 L322.3,1113.2 L321.1,1108.8 L319.5,1103.1 L317.5,1096.2 L315.0,1088.4 L311.9,1079.8 L308.3,1070.8 L303.9,1061.6 L298.9,1052.7 L293.1,1044.3 L286.6,1036.9 L279.5,1030.7 L271.7,1025.9 L263.4,1023.0 L254.8,1022.0 L245.7,1023.2 L236.5,1026.6 L227.2,1032.2 L218.0,1039.0 L208.9,1046.6 L199.9,1048.6 L190.9,1051.5 L182.2,1055.4 L173.6,1060.2 L165.3,1065.7 L157.3,1072.0 L149.7,1078.6 L142.5,1085.6 L135.8,1092.6 L129.5,1099.6 L123.8,1106.2 L118.5,1112.4 L113.7,1118.4 L109.5,1124.1 L105.7,1129.5 L102.5,1134.6 L99.8,1139.4 L97.5,1144.0 L95.8,1148.4 L94.7,1152.6 L94.0,1156.5" fill="none" stroke="#f59e0b" stroke-width="3" opacity="0.9"/>
</svg>
